<svg width="20" height="20" viewBox="0 0 20 20" fill="none" xmlns="http://www.w3.org/2000/svg">
<g clip-path="url(#clip0_379_846)">
<path d="M9.99977 0.814697C8.18309 0.814697 6.4072 1.35341 4.89668 2.3627C3.38617 3.372 2.20886 4.80655 1.51365 6.48494C0.818433 8.16334 0.636533 10.0102 0.99095 11.792C1.34537 13.5738 2.22018 15.2104 3.50477 16.495C4.78936 17.7796 6.42603 18.6544 8.2078 19.0088C9.98958 19.3632 11.8364 19.1813 13.5148 18.4861C15.1932 17.7909 16.6278 16.6136 17.6371 15.1031C18.6464 13.5926 19.1851 11.8167 19.1851 10C19.1824 7.56475 18.2137 5.23002 16.4918 3.50803C14.7698 1.78604 12.435 0.817427 9.99977 0.814697ZM9.99977 18.6384C8.29125 18.6384 6.62109 18.1318 5.20051 17.1826C3.77993 16.2334 2.67272 14.8843 2.01889 13.3058C1.36507 11.7273 1.194 9.99043 1.52732 8.31473C1.86063 6.63904 2.68336 5.09982 3.89147 3.89171C5.09958 2.6836 6.6388 1.86087 8.31449 1.52756C9.99019 1.19424 11.7271 1.36531 13.3056 2.01913C14.884 2.67296 16.2332 3.78017 17.1824 5.20075C18.1316 6.62133 18.6382 8.29149 18.6382 10C18.6356 12.2903 17.7246 14.486 16.1052 16.1054C14.4857 17.7249 12.29 18.6358 9.99977 18.6384Z" fill="white"/>
<path d="M9.99975 2.34937C8.4866 2.34937 7.00743 2.79807 5.74929 3.63873C4.49115 4.47939 3.51055 5.67425 2.93149 7.07222C2.35244 8.47019 2.20093 10.0085 2.49613 11.4926C2.79133 12.9766 3.51998 14.3398 4.58994 15.4098C5.6599 16.4798 7.02311 17.2084 8.50719 17.5036C9.99126 17.7988 11.5295 17.6473 12.9275 17.0682C14.3255 16.4892 15.5204 15.5086 16.361 14.2504C17.2017 12.9923 17.6504 11.5131 17.6504 9.99999C17.6481 7.97162 16.8413 6.02697 15.407 4.59269C13.9728 3.15842 12.0281 2.35164 9.99975 2.34937ZM9.99975 17.1037C8.59476 17.1037 7.22132 16.6871 6.05312 15.9065C4.88491 15.126 3.97441 14.0165 3.43674 12.7185C2.89907 11.4204 2.7584 9.99211 3.0325 8.61412C3.3066 7.23612 3.98316 5.97036 4.97664 4.97688C5.97012 3.9834 7.23588 3.30684 8.61388 3.03274C9.99187 2.75864 11.4202 2.89931 12.7182 3.43698C14.0163 3.97465 15.1257 4.88515 15.9063 6.05336C16.6869 7.22156 17.1035 8.595 17.1035 9.99999C17.1014 11.8834 16.3523 13.689 15.0205 15.0208C13.6888 16.3525 11.8831 17.1016 9.99975 17.1037Z" fill="white"/>
<path d="M9.99978 3.89514C9.78266 3.89514 9.56776 3.93892 9.36794 4.02386C9.16813 4.10881 8.98749 4.23317 8.83683 4.38952C8.68617 4.54586 8.56858 4.73099 8.4911 4.93381C8.41362 5.13664 8.37783 5.35301 8.38587 5.56999L8.6065 11.5C8.61973 11.8607 8.77232 12.2022 9.03216 12.4526C9.29201 12.7031 9.63886 12.8431 9.99978 12.8431C10.3607 12.8431 10.7076 12.7031 10.9674 12.4526C11.2272 12.2022 11.3798 11.8607 11.3931 11.5L11.6137 5.5692C11.6216 5.35229 11.5858 5.13601 11.5082 4.93327C11.4307 4.73054 11.3131 4.54551 11.1624 4.38925C11.0118 4.23298 10.8312 4.10869 10.6314 4.02379C10.4317 3.9389 10.2168 3.89514 9.99978 3.89514ZM10.8463 11.4806C10.8379 11.6995 10.7451 11.9066 10.5872 12.0585C10.4294 12.2104 10.2188 12.2953 9.99978 12.2953C9.78073 12.2953 9.57019 12.2104 9.41235 12.0585C9.2545 11.9066 9.16163 11.6995 9.15322 11.4806L8.93244 5.54967C8.92694 5.40607 8.95048 5.26284 9.00164 5.12855C9.05281 4.99426 9.13054 4.87167 9.2302 4.76813C9.32985 4.66459 9.44937 4.58222 9.58161 4.52596C9.71385 4.4697 9.85607 4.4407 9.99978 4.4407C10.1435 4.4407 10.2857 4.4697 10.418 4.52596C10.5502 4.58222 10.6697 4.66459 10.7694 4.76813C10.869 4.87167 10.9468 4.99426 10.9979 5.12855C11.0491 5.26284 11.0726 5.40607 11.0671 5.54967L10.8463 11.4806Z" fill="white"/>
<path d="M9.99977 13.538C9.73209 13.538 9.47042 13.6173 9.24786 13.7661C9.0253 13.9148 8.85185 14.1262 8.74944 14.3735C8.64703 14.6208 8.62027 14.893 8.67253 15.1555C8.7248 15.418 8.85375 15.6591 9.04307 15.8484C9.2324 16.0376 9.47359 16.1665 9.73614 16.2186C9.99869 16.2707 10.2708 16.2439 10.5181 16.1413C10.7653 16.0388 10.9767 15.8653 11.1253 15.6426C11.2739 15.42 11.3532 15.1583 11.353 14.8906C11.3525 14.5319 11.2097 14.1881 10.956 13.9346C10.7023 13.681 10.3584 13.5384 9.99977 13.538ZM9.99977 15.6975C9.84027 15.6975 9.68435 15.6502 9.55173 15.5616C9.41912 15.473 9.31576 15.347 9.25473 15.1997C9.1937 15.0523 9.17774 14.8901 9.20887 14.7337C9.23999 14.5773 9.31681 14.4336 9.42961 14.3208C9.5424 14.208 9.6861 14.1313 9.84254 14.1002C9.99898 14.0691 10.1611 14.0851 10.3085 14.1461C10.4558 14.2072 10.5818 14.3106 10.6703 14.4432C10.7589 14.5758 10.8062 14.7317 10.8062 14.8912C10.8059 15.105 10.7209 15.31 10.5697 15.4611C10.4185 15.6123 10.2135 15.6973 9.99977 15.6975Z" fill="white"/>
</g>
<defs>
<clipPath id="clip0_379_846">
<rect width="20" height="20" fill="white"/>
</clipPath>
</defs>
</svg>
