<svg width="960" height="872" viewBox="0 0 960 872" fill="none" xmlns="http://www.w3.org/2000/svg">
<g opacity="0.05" clip-path="url(#clip0_122_2669)">
<path d="M981.378 444.094L858.029 398.894C858.029 397.387 856.525 398.894 855.021 398.894C855.021 400.4 853.517 400.4 853.517 401.907L830.953 531.48C830.953 534.494 830.953 534.494 832.457 536C833.961 537.507 835.465 536 836.97 536L885.106 516.414L889.619 525.454C922.712 588.734 898.644 670.094 838.474 704.747C785.825 736.387 721.142 727.347 680.527 688.174C685.04 688.174 689.553 685.16 692.561 683.654C697.074 680.64 701.587 677.627 704.595 673.107C707.604 668.587 710.612 664.067 713.621 658.04C715.125 653.52 716.629 647.494 716.629 641.467C716.629 638.454 716.629 633.934 715.125 630.92C706.099 608.32 695.57 588.734 682.031 575.174C666.989 585.72 660.972 599.28 663.98 615.854C663.98 618.867 665.484 621.88 666.989 624.894C669.997 633.934 673.006 644.48 674.51 655.027C676.014 664.067 676.014 674.614 677.519 685.16C673.006 680.64 666.989 674.614 662.476 668.587C662.476 667.08 662.476 667.08 662.476 665.574C663.98 661.054 663.98 655.027 662.476 650.507C662.476 645.987 660.972 639.96 659.467 635.44C654.955 636.947 650.442 636.947 645.929 639.96L545.144 465.187C546.648 463.68 548.153 462.174 549.657 459.16C561.691 442.587 576.733 427.52 596.289 415.467C588.767 406.427 578.238 401.907 566.204 400.4C554.17 398.894 543.64 401.907 534.614 409.44C531.606 410.947 528.597 413.96 527.093 416.974C525.589 419.987 524.084 421.494 522.58 424.507L466.923 328.08L518.067 297.947L522.58 294.934H525.589C534.614 296.44 543.64 294.934 551.161 290.414C570.716 279.867 576.733 255.76 566.204 236.174C555.674 216.587 531.606 210.56 512.05 221.107C503.025 225.627 497.008 233.16 493.999 242.2L492.495 245.214L438.342 276.854L433.829 267.814C433.829 267.814 418.787 242.2 414.274 234.667L411.265 228.64L414.274 222.614C432.325 195.494 433.829 160.84 417.282 133.72C394.718 94.547 343.574 80.987 302.959 103.587C263.848 126.187 250.31 177.414 272.874 218.094C275.882 222.614 278.891 227.134 281.899 230.147C263.848 230.147 247.301 242.2 242.789 260.28C241.284 263.294 241.284 266.307 239.78 270.827C238.276 293.427 239.78 314.52 247.301 332.6C266.857 329.587 277.386 319.04 280.395 302.467C280.395 299.454 281.899 296.44 281.899 293.427C283.403 276.854 286.412 258.774 292.429 240.694C295.438 243.707 298.446 245.214 301.455 246.72C296.942 260.28 293.933 272.334 293.933 285.894C313.489 288.907 328.531 281.374 337.557 267.814C339.061 264.8 340.565 263.294 342.069 260.28C342.069 260.28 342.069 260.28 342.069 258.774C346.582 258.774 351.095 258.774 355.608 258.774C358.616 260.28 363.129 263.294 366.138 263.294C372.155 272.334 384.189 293.427 384.189 293.427L388.701 302.467L334.548 334.107L330.035 332.6C321.01 331.094 311.984 332.6 302.959 337.12C283.403 347.667 277.386 371.774 287.916 391.36C298.446 410.947 322.514 416.974 342.069 406.427C349.591 401.907 355.608 395.88 358.616 386.84V383.827L361.625 382.32L364.633 380.814L415.778 350.68L460.906 427.52C460.906 427.52 460.906 427.52 459.401 429.027C457.897 430.534 456.393 432.04 454.889 433.547L451.88 436.56V438.067C451.88 439.574 450.376 439.574 450.376 441.08C448.872 445.6 448.872 448.614 448.872 451.627C448.872 456.147 447.367 462.174 445.863 466.694L444.359 474.227L442.855 481.76C439.846 492.307 436.838 502.854 433.829 513.4C444.359 516.414 454.889 513.4 463.914 508.88C472.94 504.36 480.461 495.32 484.974 486.28C484.974 484.774 486.478 483.267 486.478 481.76V480.254H484.974V478.747C484.974 477.24 484.974 475.734 486.478 472.72L605.314 679.134C606.819 680.64 606.819 682.147 608.323 683.654C605.314 683.654 602.306 683.654 599.297 685.16C594.784 685.16 590.272 686.667 587.263 688.174C584.255 689.68 579.742 692.694 576.733 695.707C576.733 695.707 576.733 695.707 576.733 697.214L575.229 698.72C573.725 700.227 572.221 701.734 570.716 703.24C569.212 706.254 567.708 707.76 566.204 710.774C558.682 728.854 548.153 748.44 533.11 765.014C551.161 777.067 578.238 772.547 591.776 755.974C593.28 752.96 596.289 749.947 597.793 746.934C599.297 743.92 600.802 740.907 602.306 737.894C603.81 734.88 603.81 731.867 605.314 730.36C606.819 724.334 608.323 719.814 609.827 715.294C611.331 710.774 611.331 704.747 612.836 700.227C612.836 698.72 612.836 697.214 612.836 695.707C615.844 701.734 617.348 707.76 618.853 713.787C617.348 722.827 614.34 730.36 612.836 739.4C615.844 740.907 618.853 740.907 621.861 740.907C623.365 787.614 599.297 834.32 555.674 859.934C495.504 896.094 414.274 875 375.163 814.734L369.146 805.694L415.778 778.574C417.282 778.574 418.787 777.067 418.787 775.56C418.787 774.054 417.282 772.547 415.778 772.547L292.429 727.347C292.429 725.84 290.925 727.347 289.42 727.347C287.916 728.854 286.412 728.854 286.412 730.36L263.848 859.934C263.848 861.44 263.848 861.44 265.352 862.947C266.857 864.454 268.361 862.947 269.865 862.947L311.984 838.84L316.497 847.88C366.138 930.747 465.418 965.4 567.708 933.76C668.493 903.627 754.236 915.68 799.363 968.414C800.868 969.92 803.876 968.414 805.38 968.414C806.885 968.414 809.893 966.907 808.389 963.894C785.825 899.107 817.414 817.747 894.131 745.427C972.353 671.6 991.908 569.147 945.276 484.774L940.763 475.734L981.378 450.12C982.883 450.12 984.387 448.614 984.387 447.107C984.387 445.6 982.883 444.094 981.378 444.094ZM328.531 145.774C343.574 136.734 363.129 142.76 372.155 157.827C381.18 172.894 375.163 190.974 361.625 200.014C357.112 198.507 352.599 198.507 346.582 198.507C343.574 198.507 340.565 198.507 337.557 200.014C336.052 200.014 334.548 201.52 331.54 201.52C331.54 201.52 331.54 201.52 330.035 203.027C324.018 200.014 319.506 195.494 316.497 189.467C307.472 174.4 313.489 154.814 328.531 145.774Z" fill="white"/>
<path d="M472.972 706.253C469.963 704.747 468.459 703.24 463.946 703.24C460.938 701.733 457.929 701.733 453.416 703.24L418.818 746.933C423.331 748.44 426.34 748.44 430.852 748.44C454.92 745.427 474.476 736.387 488.014 722.827C485.006 718.307 483.501 715.293 480.493 712.28C477.484 709.267 475.98 707.76 472.972 706.253Z" fill="white"/>
<path d="M465.438 775.561C468.446 777.068 471.455 777.068 474.463 778.575C480.48 780.081 486.497 780.081 492.514 780.081C498.531 780.081 504.548 777.068 509.061 775.561C512.07 774.055 515.078 772.548 518.087 769.535C533.129 751.455 543.659 734.881 554.189 716.801C537.642 707.761 521.095 707.761 507.557 718.308C506.053 719.815 503.044 721.321 501.54 724.335C488.002 739.401 471.455 751.455 447.387 757.481C450.395 763.508 453.404 766.521 457.917 771.041C460.925 772.548 462.429 774.055 465.438 775.561Z" fill="white"/>
<path d="M692.568 520.933C689.56 520.933 688.056 520.933 685.047 519.426C680.534 517.919 674.517 517.919 670.005 516.413C668.5 520.933 668.5 525.453 668.5 529.973C668.5 531.479 668.5 531.479 666.996 532.986V534.493C666.996 540.519 671.509 548.053 676.022 554.079C677.526 555.586 680.534 558.599 682.039 560.106C697.081 572.159 709.115 590.239 719.645 611.333C724.158 608.319 728.671 603.799 731.679 599.279C733.183 596.266 734.688 594.759 736.192 591.746C737.696 588.733 737.696 585.719 739.2 582.706C739.2 579.693 740.705 576.679 740.705 573.666C739.2 575.173 737.696 572.159 737.696 569.146C737.696 566.133 736.192 563.119 736.192 560.106C734.688 557.093 734.688 555.586 733.183 552.573C731.679 549.559 728.671 546.546 727.166 543.533C718.141 535.999 710.62 528.466 700.09 523.946C697.081 522.439 695.577 520.933 692.568 520.933Z" fill="white"/>
<path d="M632.395 493.813C636.908 499.84 644.429 502.853 651.95 504.36C654.959 504.36 657.967 505.867 660.976 505.867C665.489 505.867 671.506 507.373 676.018 507.373C680.531 507.373 686.548 508.88 691.061 510.387L698.582 511.893C701.591 513.4 704.599 513.4 706.104 514.907C710.616 517.92 716.633 522.44 721.146 525.453C724.155 520.933 725.659 516.413 724.155 505.867C724.155 504.36 722.65 501.347 722.65 499.84C722.65 498.333 722.65 498.333 721.146 496.827V495.32C719.642 492.307 719.642 490.8 718.138 487.787C713.625 478.747 704.599 469.707 694.07 466.693C691.061 465.187 686.548 465.187 683.54 463.68C662.48 463.68 641.421 465.187 621.865 472.72C623.369 481.76 626.378 489.293 632.395 493.813Z" fill="white"/>
<path d="M561.693 457.653C575.232 471.213 588.77 475.733 603.813 469.707C606.821 468.2 609.83 468.2 611.334 466.693C629.385 457.653 650.444 453.133 673.008 453.133C671.504 442.587 665.487 432.04 654.957 424.507C645.932 416.973 633.898 413.96 621.864 415.467C618.855 415.467 614.342 416.973 611.334 418.48C590.274 429.027 573.727 442.586 561.693 457.653Z" fill="white"/>
<path d="M352.607 539.014C357.12 542.027 363.137 545.041 367.65 545.041C373.667 546.547 378.18 546.547 384.197 545.041C390.214 545.041 394.727 542.027 399.239 539.014C403.752 536.001 408.265 532.987 411.273 528.467C412.778 525.454 415.786 522.441 417.29 519.427C427.82 499.841 433.837 478.747 436.846 459.161C427.82 457.654 418.795 457.654 411.273 460.667C408.265 462.174 403.752 463.681 400.744 466.694C397.735 469.707 394.727 472.721 393.222 477.241C391.718 480.254 390.214 481.761 388.71 484.774C387.205 489.294 384.197 493.814 382.693 498.334C381.188 501.347 379.684 502.854 379.684 505.867L373.667 513.401C370.658 517.921 367.65 522.441 364.641 526.961C361.633 531.481 357.12 534.494 352.607 539.014Z" fill="white"/>
<path d="M352.598 481.76C349.59 481.76 345.077 481.76 342.069 483.267C339.06 484.773 336.052 486.28 331.539 487.787C328.53 489.293 327.026 490.8 324.018 492.307C308.975 504.36 289.42 513.4 265.352 514.907C266.856 520.933 269.864 525.453 274.377 529.973C278.89 534.493 283.403 537.507 289.42 540.52C295.437 543.533 301.454 545.04 307.471 545.04C313.488 545.04 319.505 545.04 325.522 542.027C328.53 540.52 333.043 539.013 336.052 536C345.077 529.973 352.598 520.933 360.12 513.4C366.137 507.373 370.649 498.333 375.162 489.293C370.649 486.28 367.641 484.773 363.128 483.267C358.615 481.76 355.607 481.76 352.598 481.76Z" fill="white"/>
<path d="M310.488 484.773C308.984 483.266 308.984 481.759 307.48 480.253C305.976 477.239 302.967 474.226 301.463 472.719C296.95 468.199 290.933 466.693 283.412 465.186C281.908 465.186 277.395 463.679 274.386 463.679L259.344 462.173C254.831 460.666 248.814 460.666 244.301 459.159C238.284 457.653 233.771 456.146 229.259 454.639C224.746 453.133 218.729 451.626 214.216 448.613C212.712 454.639 212.712 459.159 214.216 465.186C215.72 471.213 217.225 475.733 218.729 480.253C221.737 484.773 224.746 489.293 229.259 492.306C230.763 493.813 233.771 495.319 235.276 496.826C238.284 498.333 239.788 499.839 242.797 501.346C247.31 502.853 250.318 504.359 254.831 504.359C278.899 505.866 299.959 499.839 316.505 489.293C313.497 487.786 311.993 486.279 310.488 484.773Z" fill="white"/>
<path d="M250.325 407.935C248.821 406.428 245.812 404.921 242.804 403.415C224.753 395.881 206.702 382.321 194.668 362.735C187.146 370.268 182.634 383.828 184.138 395.881C184.138 407.935 190.155 419.988 197.676 427.521C200.685 430.535 203.693 432.041 206.702 433.548C227.761 444.095 247.317 448.615 268.376 451.628C269.88 432.041 263.863 416.975 250.325 407.935Z" fill="white"/>
<path d="M196.185 346.161C206.715 367.254 221.757 382.321 239.808 392.867C245.825 385.334 248.834 379.307 250.338 373.281C251.842 367.254 250.338 361.227 247.33 353.694C245.825 350.681 244.321 349.174 242.817 346.161C233.791 329.587 227.774 308.494 227.774 284.387C217.244 285.894 206.715 291.921 200.698 302.467C194.681 313.014 190.168 325.067 193.176 337.121C193.176 338.627 194.681 343.147 196.185 346.161Z" fill="white"/>
</g>
<defs>
<clipPath id="clip0_122_2669">
<rect width="960" height="962" fill="white"/>
</clipPath>
</defs>
</svg>
